<svg width="302" height="269" viewBox="0 0 302 269" fill="none" xmlns="http://www.w3.org/2000/svg">
<path d="M272.977 250.219C272.977 255.589 224.182 259.942 163.986 259.942C103.793 259.942 54.9961 255.589 54.9961 250.219C54.9961 244.849 103.793 240.496 163.986 240.496C224.182 240.496 272.977 244.849 272.977 250.219Z" fill="#B2B2B2"/>
<path d="M42.1719 202.823C33.4945 202.823 26.4333 194.799 26.4333 184.939V97.8271H31.098L31.0963 184.939C31.0963 192.23 36.0644 198.16 42.1719 198.16C48.2777 198.16 53.2457 192.23 53.2457 184.939L53.2474 146.878C53.2474 136.849 58.3676 128.994 64.9028 128.994C71.4397 128.994 76.5615 136.85 76.5615 146.878L76.5599 167.842C76.5599 175.009 81.1877 181.063 86.6645 181.063C92.1405 181.063 96.7692 175.009 96.7692 167.842V114.032H101.431V167.842C101.431 177.703 94.807 185.726 86.6645 185.726C78.5221 185.726 71.8985 177.702 71.8985 167.842V146.878C71.8985 139.086 68.2129 133.656 64.9028 133.656C61.5959 133.656 57.9087 139.086 57.9087 146.878V184.939C57.9087 194.799 50.8492 202.823 42.1719 202.823Z" fill="#525251"/>
<path d="M42.174 201.268C34.3521 201.268 27.9895 193.942 27.9895 184.938V97.8271H29.5436V184.939C29.5436 193.086 35.2101 199.714 42.1731 199.714C49.1369 199.714 54.8011 193.086 54.8011 184.939V146.878C54.8011 137.873 59.3332 130.547 64.9041 130.547C70.4766 130.547 75.0087 137.873 75.0087 146.878V167.842C75.0087 175.99 80.2377 182.618 86.6658 182.618C93.0939 182.618 98.3229 175.99 98.3229 167.842V114.032H99.8786L99.8769 167.842C99.8769 176.846 93.9502 184.172 86.6658 184.172C79.3814 184.172 73.4547 176.846 73.4547 167.842V146.878C73.4547 138.868 69.5393 132.101 64.9049 132.101C60.2722 132.101 56.3568 138.868 56.3568 146.878V184.939C56.3568 193.942 49.9933 201.268 42.174 201.268Z" fill="#5C5C5B"/>
<path d="M42.1726 200.686C34.6722 200.686 28.5713 193.621 28.5713 184.939V97.8271H28.9614V184.939C28.9614 193.407 34.8881 200.297 42.1726 200.297C49.457 200.297 55.3837 193.407 55.3837 184.939V146.878C55.3837 138.195 59.6541 131.131 64.9035 131.131C70.1546 131.131 74.425 138.195 74.425 146.878V167.842C74.425 176.311 79.9157 183.201 86.6652 183.201C93.4147 183.201 98.9055 176.31 98.9055 167.842V114.032H99.2956L99.294 167.842C99.294 176.525 93.629 183.589 86.666 183.589C79.7022 183.589 74.0373 176.525 74.0373 167.842V146.878C74.0373 138.409 69.9395 131.519 64.9043 131.519C59.8692 131.519 55.773 138.409 55.773 146.878V184.939C55.7722 193.621 49.6713 200.686 42.1726 200.686Z" fill="#7C7C7B"/>
<path d="M103.501 105.812H94.7014V120.918H103.501V105.812Z" fill="#878787"/>
<path d="M103.499 105.812H99.0991V120.918H103.499V105.812Z" fill="#B2B2B2"/>
<path d="M114.969 97.695C115.079 88.9301 108.062 81.736 99.2964 81.6264C90.5311 81.5168 83.3365 88.5333 83.227 97.2982C83.1174 106.063 90.1343 113.257 98.8996 113.367C107.665 113.476 114.86 106.46 114.969 97.695Z" fill="#9D9D9C"/>
<path d="M99.0999 108.889C105.394 108.889 110.496 103.787 110.496 97.4933C110.496 91.1994 105.394 86.0972 99.0999 86.0972C92.806 86.0972 87.7037 91.1994 87.7037 97.4933C87.7037 103.787 92.806 108.889 99.0999 108.889Z" fill="#C6C6C6"/>
<path d="M91.1637 97.4926C91.1637 93.1102 94.7168 89.5571 99.1 89.5571C103.482 89.5571 107.035 93.1102 107.035 97.4926C107.035 101.875 103.482 105.428 99.1 105.428C94.7168 105.429 91.1637 101.876 91.1637 97.4926Z" fill="#EDEDED"/>
<path d="M31.8762 91.416H25.6583V104.239H31.8762V91.416Z" fill="#878787"/>
<path d="M30.3202 91.416H27.2113V104.239H30.3202V91.416Z" fill="#9D9D9C"/>
<path d="M29.3501 91.416H28.1837V104.239H29.3501V91.416Z" fill="#B4B4B4"/>
<path d="M49.4541 75.5806H8.08179V81.7984H49.4541V75.5806Z" fill="#878787"/>
<path d="M49.4541 77.1357H8.08179V80.2447H49.4541V77.1357Z" fill="#9D9D9C"/>
<path d="M49.4541 78.1064H8.08179V79.2728H49.4541V78.1064Z" fill="#B4B4B4"/>
<path d="M28.7666 94.524C12.9111 94.524 0.0115967 80.8074 0.0115967 63.9476C0.0115967 55.3626 3.43216 34.9447 8.52129 18.2329L14.4684 20.0446C9.54042 36.2273 6.22864 55.81 6.22864 63.9476C6.22864 77.3795 16.339 88.3054 28.7666 88.3054C41.1933 88.3054 51.3045 77.3795 51.3045 63.9476C51.3045 55.81 47.9943 36.2264 43.0647 20.0446L49.0118 18.2329C54.1034 34.9447 57.5215 55.3626 57.5215 63.9476C57.5223 80.8074 44.622 94.524 28.7666 94.524Z" fill="#878787"/>
<path d="M28.7688 92.9695C13.7697 92.9695 1.56787 79.9498 1.56787 63.9479C1.56787 55.475 4.96062 35.2657 10.0105 18.6855L12.9853 19.5918C8.01557 35.907 4.6768 55.6983 4.6768 63.9479C4.6768 78.2362 15.484 89.8606 28.7688 89.8606C42.0535 89.8606 52.8608 78.2362 52.8608 63.9479C52.8608 55.6983 49.5236 35.907 44.5539 19.5918L47.5271 18.6855C52.5769 35.2657 55.9697 55.475 55.9697 63.9479C55.9697 79.9498 43.7679 92.9695 28.7688 92.9695Z" fill="#9D9D9C"/>
<path d="M28.7664 91.9988C14.3038 91.9988 2.53882 79.415 2.53882 63.9481C2.53882 55.5455 5.91276 35.4663 10.9389 18.9688L12.0537 19.309C7.05867 35.7068 3.70354 55.6281 3.70354 63.9481C3.70354 78.773 14.9467 90.8325 28.7672 90.8325C42.5869 90.8325 53.8309 78.773 53.8309 63.9481C53.8309 55.6281 50.4766 35.7068 45.4823 19.309L46.5972 18.9688C51.6217 35.4663 54.9972 55.5447 54.9972 63.9481C54.9964 79.415 43.2289 91.9988 28.7664 91.9988Z" fill="#B4B4B4"/>
<path d="M34.0995 6.35465C34.0995 6.35465 33.994 2.4237 39.4733 0.573558C44.9542 -1.27577 47.2517 1.91577 47.2517 1.91577L49.4708 16.6311L41.7994 19.2206L34.0995 6.35465Z" fill="#B2B2B2"/>
<path d="M45.7727 17.881L49.4705 16.632L47.2515 1.91672C47.2515 1.91672 45.0627 -1.09652 39.8901 0.453452L45.7727 17.881Z" fill="#9D9D9C"/>
<path d="M49.4728 16.6287L41.8004 19.2183L42.8028 22.188L50.4751 19.5984L49.4728 16.6287Z" fill="#6D6D6C"/>
<path d="M49.4704 16.632L45.6924 17.9067L46.6944 20.8765L50.4725 19.6017L49.4704 16.632Z" fill="#5C5C5B"/>
<path d="M11.4785 2.08846C11.4785 2.08846 13.996 -0.932953 19.3322 1.29998C24.6675 3.5321 24.2831 7.44669 24.2831 7.44669L16.2249 19.9585L8.75476 16.8332L11.4785 2.08846Z" fill="#B2B2B2"/>
<path d="M12.6235 18.4511L16.224 19.9585L24.2822 7.44672C24.2822 7.44672 24.6307 3.73825 19.7248 1.48486L12.6235 18.4511Z" fill="#9D9D9C"/>
<path d="M8.75585 16.8308L7.54602 19.7222L15.0167 22.8481L16.2265 19.9567L8.75585 16.8308Z" fill="#6D6D6C"/>
<path d="M12.5487 18.4204L11.3385 21.3125L15.0176 22.8519L16.2278 19.9598L12.5487 18.4204Z" fill="#5C5C5B"/>
<path d="M61.1243 199.701H252.058L245.974 237.957H70.5656L61.1243 199.701Z" fill="#C13A2A"/>
<path d="M61.1243 199.701H252.058L239.266 135.31H75.6482L61.1243 199.701Z" fill="#5677B0"/>
<path d="M251.109 241.899C251.109 246.216 247.609 249.716 243.295 249.716H69.894C65.5762 249.716 62.0763 246.217 62.0763 241.899C62.0763 237.583 65.5754 234.083 69.894 234.083H243.296C247.609 234.084 251.109 237.583 251.109 241.899Z" fill="#B23626"/>
<path d="M251.014 240.961C250.546 237.093 247.287 234.083 243.293 234.083H69.8925C65.8953 234.083 62.6392 237.093 62.1697 240.961H251.014Z" fill="#DADADA"/>
<path d="M257.333 199.701C257.333 204.018 253.62 207.519 249.043 207.519H64.1404C59.5633 207.519 55.8507 204.018 55.8507 199.701C55.8507 195.385 59.5633 191.886 64.1404 191.886H249.043C253.62 191.887 257.333 195.385 257.333 199.701Z" fill="#5677B0"/>
<path d="M257.232 198.765C256.734 194.898 253.28 191.887 249.042 191.887H64.1402C59.9033 191.887 56.45 194.898 55.9495 198.765H257.232Z" fill="#DADADA"/>
<path d="M179.097 165.215C179.097 177.644 169.021 187.719 156.591 187.719C144.162 187.719 134.087 177.645 134.087 165.215C134.087 152.785 144.161 142.709 156.591 142.709C169.021 142.709 179.097 152.785 179.097 165.215Z" fill="white"/>
<path d="M167.618 159.883H161.922V154.186C161.922 152.976 160.935 151.994 159.727 151.994H153.451C152.24 151.994 151.259 152.975 151.259 154.186V159.883H145.558C144.349 159.883 143.369 160.865 143.369 162.078V168.352C143.369 169.563 144.349 170.545 145.558 170.545H151.259V176.243C151.259 177.456 152.24 178.436 153.451 178.436H159.727C160.935 178.436 161.922 177.455 161.922 176.243V170.545H167.618C168.828 170.545 169.81 169.563 169.81 168.352V162.078C169.81 160.865 168.828 159.883 167.618 159.883Z" fill="#C13A2A"/>
<path d="M122.697 134.674C122.697 136.512 121.089 138.002 119.105 138.002H100.382C98.3981 138.002 96.7909 136.512 96.7909 134.674C96.7909 132.836 98.3981 131.346 100.382 131.346H119.105C121.089 131.346 122.697 132.836 122.697 134.674Z" fill="#DADADA"/>
<path d="M122.679 134.818C122.684 134.769 122.697 134.723 122.697 134.674C122.697 132.836 121.089 131.346 119.105 131.346H100.382C98.3981 131.346 96.7909 132.836 96.7909 134.674C96.7909 134.724 96.804 134.769 96.8073 134.818H122.679Z" fill="#B2B2B2"/>
<path d="M220.486 134.674C220.486 136.512 218.878 138.002 216.896 138.002H198.171C196.188 138.002 194.582 136.512 194.582 134.674C194.582 132.836 196.188 131.346 198.171 131.346H216.896C218.878 131.346 220.486 132.836 220.486 134.674Z" fill="#DADADA"/>
<path d="M220.468 134.818C220.471 134.769 220.486 134.723 220.486 134.674C220.486 132.836 218.878 131.346 216.896 131.346H198.171C196.188 131.346 194.582 132.836 194.582 134.674C194.582 134.724 194.595 134.769 194.597 134.818H220.468Z" fill="#B2B2B2"/>
<path d="M189.174 132.491H127.797V136.546H189.174V132.491Z" fill="#878787"/>
<path d="M134.928 134.517V126.758C134.928 122.739 138.189 119.482 142.208 119.482H174.757C178.776 119.482 182.034 122.739 182.034 126.758V134.517H186.738V122.027C186.738 117.203 182.827 113.294 178.005 113.294H138.956C134.134 113.294 130.227 117.203 130.227 122.027V134.517H134.928Z" fill="#B2B2B2"/>
<path d="M137.153 134.517V127.823C137.153 124.356 140.103 121.544 143.745 121.544H173.223C176.863 121.544 179.815 124.356 179.815 127.823V134.517H184.076V123.742C184.076 119.581 180.535 116.208 176.168 116.208H140.802C136.432 116.208 132.892 119.581 132.892 123.742V134.517H137.153Z" fill="#9D9D9C"/>
<path d="M301.989 261.964C301.989 265.852 281.14 269.003 255.419 269.003C229.7 269.003 208.851 265.851 208.851 261.964C208.851 258.077 229.7 254.925 255.419 254.925C281.14 254.925 301.989 258.076 301.989 261.964Z" fill="#B2B2B2"/>
<path d="M291.542 258.966C291.542 260.621 290.217 261.964 288.583 261.964H221.279C219.647 261.964 218.322 260.621 218.322 258.966V150.509C218.322 148.852 219.647 147.51 221.279 147.51H288.583C290.217 147.51 291.542 148.852 291.542 150.509V258.966Z" fill="#161013"/>
<path d="M289.87 257.818C289.87 259.439 288.607 260.753 287.048 260.753H222.817C221.258 260.753 219.994 259.439 219.994 257.818V151.657C219.994 150.035 221.258 148.722 222.817 148.722H287.048C288.607 148.722 289.87 150.035 289.87 151.657V257.818Z" fill="#302930"/>
<path d="M222.815 260.752C221.256 260.752 219.992 259.438 219.992 257.817V151.657C219.992 150.035 221.256 148.722 222.815 148.722H287.046C288.605 148.722 289.868 150.035 289.868 151.657L222.815 260.752Z" fill="#3D353D"/>
<path d="M285.878 159.63H223.985V244.596H285.878V159.63Z" fill="#5677B0"/>
<path opacity="0.5" d="M223.985 244.596V159.63H285.878L223.985 244.596Z" fill="white"/>
<path d="M243.396 252.343C243.396 253.998 242.053 255.342 240.397 255.342H230.151C228.495 255.342 227.152 253.998 227.152 252.343V251.342C227.152 249.686 228.495 248.344 230.151 248.344H240.396C242.052 248.344 243.395 249.686 243.395 251.342L243.396 252.343Z" fill="#161013"/>
<path d="M283.031 252.343C283.031 253.998 281.689 255.342 280.032 255.342H269.787C268.13 255.342 266.788 253.998 266.788 252.343V251.342C266.788 249.686 268.13 248.344 269.787 248.344H280.032C281.689 248.344 283.031 249.686 283.031 251.342V252.343Z" fill="#161013"/>
<path d="M243.396 251.272C243.396 252.484 242.053 253.468 240.397 253.468H230.151C228.495 253.468 227.152 252.485 227.152 251.272V250.54C227.152 249.327 228.495 248.344 230.151 248.344H240.396C242.052 248.344 243.395 249.327 243.395 250.54L243.396 251.272Z" fill="#463D48"/>
<path d="M283.031 251.272C283.031 252.484 281.689 253.468 280.032 253.468H269.787C268.13 253.468 266.788 252.485 266.788 251.272V250.54C266.788 249.327 268.13 248.344 269.787 248.344H280.032C281.689 248.344 283.031 249.327 283.031 250.54V251.272Z" fill="#463D48"/>
<path opacity="0.5" d="M243.357 250.219C243.145 249.159 241.901 248.345 240.394 248.345H230.149C228.642 248.345 227.399 249.159 227.186 250.219H243.357Z" fill="white"/>
<path opacity="0.5" d="M282.997 250.219C282.783 249.159 281.539 248.345 280.033 248.345H269.787C268.281 248.345 267.038 249.159 266.824 250.219H282.997Z" fill="white"/>
<path d="M264.634 153.259C264.634 154.432 263.684 155.383 262.51 155.383H245.517C244.344 155.383 243.393 154.432 243.393 153.259C243.393 152.085 244.344 151.135 245.517 151.135H262.51C263.684 151.135 264.634 152.085 264.634 153.259Z" fill="#161013"/>
<path d="M264.542 152.633C264.276 151.765 263.467 151.134 262.511 151.134H245.518C244.563 151.134 243.755 151.765 243.488 152.633H264.542Z" fill="#949494"/>
<path d="M265.641 179.858C261.138 179.858 257.185 182.218 254.948 185.765C252.709 182.218 248.758 179.858 244.252 179.858C237.273 179.858 230.599 185.024 231.613 192.498C232.91 202.041 252.067 217.453 254.948 217.453C257.828 217.453 277.129 202.905 278.281 192.498C279.094 185.164 272.622 179.858 265.641 179.858Z" fill="#A51E18"/>
<path d="M265.641 183.095C261.138 183.095 257.185 185.047 254.948 187.984C252.709 185.047 248.758 183.095 244.252 183.095C237.273 183.095 230.599 187.371 231.613 193.558C232.91 201.457 252.067 214.217 254.948 214.217C257.828 214.217 277.129 202.173 278.281 193.558C279.094 187.486 272.622 183.095 265.641 183.095Z" fill="#B41F1C"/>
<path d="M242.653 229.616V222.289H241.501V221.096L242.653 220.505H244.327V229.616H242.653Z" fill="white"/>
<path d="M244.874 226.543H246.467V227.174C246.467 227.458 246.48 227.645 246.507 227.737C246.569 227.938 246.705 228.039 246.913 228.039C247.21 228.039 247.358 227.751 247.358 227.174V226.611C247.358 226.027 247.208 225.734 246.911 225.734H246.136V223.978H246.911C247.208 223.978 247.358 223.785 247.358 223.401V222.797C247.358 222.386 247.21 222.18 246.913 222.18C246.616 222.18 246.467 222.381 246.467 222.783V223.401H244.874V222.564C244.874 221.174 245.566 220.479 246.946 220.479C248.336 220.479 249.033 221.174 249.033 222.564V223.113C249.033 224.193 248.643 224.751 247.866 224.787V224.827C248.643 224.864 249.033 225.422 249.033 226.501V227.667C249.033 229.058 248.336 229.753 246.946 229.753C245.565 229.753 244.874 229.058 244.874 227.667V226.543Z" fill="white"/>
<path d="M253.672 227.682C253.672 229.099 252.99 229.809 251.627 229.809C250.264 229.809 249.582 229.099 249.582 227.682V222.633C249.582 221.215 250.264 220.506 251.627 220.506C252.99 220.506 253.672 221.215 253.672 222.633V227.682ZM251.997 227.668V222.646C251.997 222.244 251.875 222.042 251.627 222.042C251.379 222.042 251.256 222.244 251.256 222.646V227.668C251.256 228.071 251.379 228.272 251.627 228.272C251.875 228.272 251.997 228.071 251.997 227.668Z" fill="white"/>
<path d="M256.357 220.505H257.664L255.579 229.808H254.27L256.357 220.505Z" fill="white"/>
<path d="M257.897 227.723V226.598C257.897 225.437 258.285 224.837 259.063 224.8V224.773C258.339 224.645 257.978 224.032 257.978 222.935V222.358C257.978 221.105 258.665 220.479 260.038 220.479C260.664 220.479 261.154 220.63 261.509 220.931C261.891 221.26 262.081 221.736 262.081 222.358V222.935C262.081 223.457 262.024 223.85 261.905 224.115C261.742 224.481 261.441 224.701 260.998 224.773V224.8C261.774 224.874 262.165 225.482 262.165 226.626V227.724C262.165 228.456 261.995 228.977 261.657 229.288C261.318 229.598 260.778 229.755 260.038 229.755C259.305 229.755 258.766 229.597 258.418 229.281C258.071 228.965 257.897 228.446 257.897 227.723ZM259.571 223.003V223.168C259.571 223.717 259.725 223.991 260.037 223.991C260.337 223.991 260.489 223.716 260.489 223.168V223.003C260.489 222.455 260.337 222.181 260.037 222.181C259.725 222.18 259.571 222.455 259.571 223.003ZM259.571 226.063V227.544C259.571 227.873 259.725 228.038 260.037 228.038C260.337 228.038 260.489 227.873 260.489 227.544V226.063C260.489 225.724 260.337 225.555 260.037 225.555C259.725 225.555 259.571 225.725 259.571 226.063Z" fill="white"/>
<path d="M266.816 227.682C266.816 229.099 266.134 229.809 264.771 229.809C263.409 229.809 262.727 229.099 262.727 227.682V222.633C262.727 221.215 263.409 220.506 264.771 220.506C266.134 220.506 266.816 221.215 266.816 222.633V227.682ZM265.142 227.668V222.646C265.142 222.244 265.019 222.042 264.771 222.042C264.523 222.042 264.401 222.244 264.401 222.646V227.668C264.401 228.071 264.523 228.272 264.771 228.272C265.019 228.272 265.142 228.071 265.142 227.668Z" fill="white"/>
<path d="M228.073 194.774H238.213L239.292 197.534L240.853 189.012L241.813 204.017L242.775 194.774H247.575L249.377 198.255L251.957 189.012L253.578 205.218L254.659 194.774H261.142L262.701 197.115L264.742 189.611L265.151 201.79L266.663 194.774H281.788" stroke="white" stroke-width="0.8806" stroke-miterlimit="10"/>
</svg>
